<svg xmlns="http://www.w3.org/2000/svg" viewBox="0 0 60 80" fill="white">
  <!-- Bell/dome -->
  <path d="M5 35 C5 12, 15 2, 30 2 C45 2, 55 12, 55 35 C50 32, 40 30, 30 31 C20 30, 10 32, 5 35Z" opacity="0.9"/>
  <!-- Bell inner texture -->
  <path d="M12 30 C15 18, 22 10, 30 8 C38 10, 45 18, 48 30" fill="none" stroke="white" stroke-width="0.5" opacity="0.3"/>
  <!-- Oral arms (frilly inner tentacles) -->
  <path d="M22 35 C21 42, 23 50, 20 58 C18 62, 22 60, 23 55 C24 50, 22 45, 24 40" fill="none" stroke="white" stroke-width="1.5" opacity="0.6" stroke-linecap="round"/>
  <path d="M30 34 C30 42, 32 50, 29 58 C27 63, 31 61, 32 56 C33 50, 30 45, 31 40" fill="none" stroke="white" stroke-width="1.5" opacity="0.6" stroke-linecap="round"/>
  <path d="M38 35 C39 42, 37 50, 40 58 C42 62, 38 60, 37 55 C36 50, 38 45, 36 40" fill="none" stroke="white" stroke-width="1.5" opacity="0.6" stroke-linecap="round"/>
  <!-- Trailing tentacles -->
  <path d="M14 34 C13 42, 15 52, 12 62 C10 68, 11 72, 13 78" fill="none" stroke="white" stroke-width="0.8" opacity="0.35" stroke-linecap="round"/>
  <path d="M20 33 C19 44, 18 55, 16 65 C15 70, 17 74, 18 78" fill="none" stroke="white" stroke-width="0.8" opacity="0.35" stroke-linecap="round"/>
  <path d="M40 33 C41 44, 42 55, 44 65 C45 70, 43 74, 42 78" fill="none" stroke="white" stroke-width="0.8" opacity="0.35" stroke-linecap="round"/>
  <path d="M46 34 C47 42, 45 52, 48 62 C50 68, 49 72, 47 78" fill="none" stroke="white" stroke-width="0.8" opacity="0.35" stroke-linecap="round"/>
  <!-- Bell scalloped edge -->
  <path d="M5 35 C8 38, 12 36, 15 35 C18 38, 22 36, 25 35 C28 38, 32 36, 35 35 C38 38, 42 36, 45 35 C48 38, 52 36, 55 35" fill="none" stroke="white" stroke-width="0.8" opacity="0.5"/>
</svg>
